<svg xmlns="http://www.w3.org/2000/svg" xmlns:xlink="http://www.w3.org/1999/xlink">
    <defs>
        <rect id="path-1" x="2" y="6" width="30" height="20" rx="5"/>
        <mask id="mask-2" maskContentUnits="userSpaceOnUse" maskUnits="objectBoundingBox" x="0" y="0" width="30" height="20" fill="white">
            <use xlink:href="#path-1"/>
        </mask>
        <path d="M42.0706547,8.09130859 L48.2723828,5.24975834 C49.7788042,4.55953587 51,5.34177063 51,6.99109042 L51,25.0089096 C51,26.6608432 49.78622,27.4438619 48.2752794,26.7515689 L42,23.8763184 L42.0706547,8.09130859 Z" id="path-3"/>
        <mask id="mask-4" maskContentUnits="userSpaceOnUse" maskUnits="objectBoundingBox" x="0" y="0" width="9" height="22.0049938" fill="white">
            <use xlink:href="#path-3"/>
        </mask>
        <rect id="path-5" x="31" y="11" width="12" height="10"/>
        <mask id="mask-6" maskContentUnits="userSpaceOnUse" maskUnits="objectBoundingBox" x="0" y="0" width="12" height="10" fill="white">
            <use xlink:href="#path-5"/>
        </mask>
        <rect id="path-7" x="34" y="10" width="6" height="12"/>
        <mask id="mask-8" maskContentUnits="userSpaceOnUse" maskUnits="objectBoundingBox" x="0" y="0" width="6" height="12" fill="white">
            <use xlink:href="#path-7"/>
        </mask>
        <rect id="path-9" x="9.5" y="6.5" width="5" height="12"/>
        <mask id="mask-10" maskContentUnits="userSpaceOnUse" maskUnits="objectBoundingBox" x="0" y="0" width="5" height="12" fill="white">
            <use xlink:href="#path-9"/>
        </mask>
        <rect id="path-11" x="16" y="21" width="2" height="12"/>
        <mask id="mask-12" maskContentUnits="userSpaceOnUse" maskUnits="objectBoundingBox" x="0" y="0" width="2" height="12" fill="white">
            <use xlink:href="#path-11"/>
        </mask>
        <rect id="path-13" x="9.5" y="-9.5" width="5" height="24" rx="1"/>
        <mask id="mask-14" maskContentUnits="userSpaceOnUse" maskUnits="objectBoundingBox" x="0" y="0" width="5" height="24" fill="white">
            <use xlink:href="#path-13"/>
        </mask>

        <path d="M23.4701134,10.5832618 C20.7300567,10.5832618 18.501126,8.35137866 18.501126,5.60931313 C18.501126,2.8659293 20.7300567,0.635364449 23.4701134,0.635364449 C26.2114875,0.635364449 28.4404182,2.8659293 28.4404182,5.60931313 C28.4404182,8.35137866 26.2114875,10.5832618 23.4701134,10.5832618 L23.4701134,10.5832618 Z M21.7984154,34.6303856 C20.8104142,34.6303856 19.9778585,33.8578613 19.9014531,32.8730907 L19.2414682,24.2751333 C19.2348816,24.1696692 19.1558415,24.0892529 19.0583587,24.0866163 L18.512982,24.0642051 C17.5539622,24.0246561 16.7648785,23.274543 16.6792518,22.3161384 L15.9428615,14.1294908 C15.9402269,12.6160815 17.1231936,11.4322475 18.5762141,11.4322475 L28.3640128,11.4322475 C29.8170332,11.4322475 31,12.6160815 31,14.0701673 L30.2649271,22.331958 C30.1806177,23.2798162 29.4007554,24.0233378 28.4509569,24.0628868 L27.9095322,24.085298 C27.8133668,24.0892529 27.7330093,24.1670326 27.7264227,24.2619503 L27.0717072,32.8704541 C26.9979364,33.856543 26.1640634,34.6303856 25.1747449,34.6303856 L21.7984154,34.6303856 Z" id="path-1"/>
        <mask id="mask-2" maskContentUnits="userSpaceOnUse" maskUnits="objectBoundingBox" x="0" y="0" width="15.0571429" height="33.9950211" fill="white">
            <use xlink:href="#path-1"/>
        </mask>
        <path d="M7.52725629,10.834261 C4.7871996,10.834261 2.55826886,8.60237785 2.55826886,5.86031232 C2.55826886,3.11692848 4.7871996,0.886363636 7.52725629,0.886363636 C10.2686303,0.886363636 12.4975611,3.11692848 12.4975611,5.86031232 C12.4975611,8.60237785 10.2686303,10.834261 7.52725629,10.834261 L7.52725629,10.834261 Z M5.85555824,34.8813847 C4.86755703,34.8813847 4.03500134,34.1088605 3.95859591,33.1240899 L3.2986111,24.5261325 C3.29202443,24.4206684 3.21298433,24.340252 3.11550155,24.3376154 L2.57012488,24.3152043 C1.61110503,24.2756553 0.8220214,23.5255422 0.736394629,22.5671376 L4.3923732e-06,14.38049 C-0.00263027752,12.8670807 1.18033651,11.6832467 2.63335696,11.6832467 L12.4211556,11.6832467 C13.8741761,11.6832467 15.0571429,12.8670807 15.0571429,14.3211664 L14.32207,22.5829572 C14.2377605,23.5308154 13.4578982,24.274337 12.5080997,24.313886 L11.9666751,24.3362971 C11.8705096,24.340252 11.7901522,24.4180318 11.7835655,24.5129494 L11.12885,33.1214533 C11.0550793,34.1075422 10.2212063,34.8813847 9.23188771,34.8813847 L5.85555824,34.8813847 Z" id="path-3"/>
        <mask id="mask-4" maskContentUnits="userSpaceOnUse" maskUnits="objectBoundingBox" x="0" y="0" width="15.0571429" height="33.9950211" fill="white">
            <use xlink:href="#path-3"/>
        </mask>
        <path d="M15.4985255,12.0394834 C12.4265014,12.0394834 9.92752796,9.53719986 9.92752796,6.46292353 C9.92752796,3.38716919 12.4265014,0.886363636 15.4985255,0.886363636 C18.5720266,0.886363636 21.071,3.38716919 21.071,6.46292353 C21.071,9.53719986 18.5720266,12.0394834 15.4985255,12.0394834 L15.4985255,12.0394834 Z M13.6242954,39 C12.5165944,39 11.5831717,38.1338818 11.4975095,37.0298027 L10.7575652,27.3901728 C10.7501806,27.2719314 10.6615645,27.1817724 10.5522713,27.1788163 L9.94082037,27.15369 C8.86561193,27.1093495 7.98092807,26.2683576 7.88492731,25.1938389 L7.05932083,16.0153504 C7.05636696,14.3185864 8.3826543,12.9913267 10.0117132,12.9913267 L20.9853378,12.9913267 C22.6143968,12.9913267 23.9406841,14.3185864 23.9406841,15.9488396 L23.1165545,25.2115751 C23.0220307,26.2742696 22.1476854,27.1078715 21.0828155,27.152212 L20.4757954,27.1773383 C20.3679791,27.1817724 20.2778861,27.2689754 20.2705014,27.3753926 L19.5364649,37.0268467 C19.4537566,38.1324037 18.5188569,39 17.409679,39 L13.6242954,39 Z" id="path-5"/>
        <mask id="mask-6" maskContentUnits="userSpaceOnUse" maskUnits="objectBoundingBox" x="0" y="0" width="16.8813682" height="38.1136364" fill="white">
            <use xlink:href="#path-5"/>
        </mask>

        <rect id="path-1" x="2" y="6" width="30" height="20" rx="5"/>
        <mask id="mask-2" maskContentUnits="userSpaceOnUse" maskUnits="objectBoundingBox" x="0" y="0" width="30" height="20" fill="white">
            <use xlink:href="#path-1"/>
        </mask>
        <path d="M42.0706547,8.09130859 L48.2723828,5.24975834 C49.7788042,4.55953587 51,5.34177063 51,6.99109042 L51,25.0089096 C51,26.6608432 49.78622,27.4438619 48.2752794,26.7515689 L42,23.8763184 L42.0706547,8.09130859 Z" id="path-3"/>
        <mask id="mask-4" maskContentUnits="userSpaceOnUse" maskUnits="objectBoundingBox" x="0" y="0" width="9" height="22.0049938" fill="white">
            <use xlink:href="#path-3"/>
        </mask>
        <rect id="path-5" x="31" y="11" width="12" height="10"/>
        <mask id="mask-6" maskContentUnits="userSpaceOnUse" maskUnits="objectBoundingBox" x="0" y="0" width="12" height="10" fill="white">
            <use xlink:href="#path-5"/>
        </mask>
        <rect id="path-7" x="34" y="10" width="6" height="12"/>
        <mask id="mask-8" maskContentUnits="userSpaceOnUse" maskUnits="objectBoundingBox" x="0" y="0" width="6" height="12" fill="white">
            <use xlink:href="#path-7"/>
        </mask>
        <rect id="path-9" x="9.5" y="6.5" width="5" height="12"/>
        <mask id="mask-10" maskContentUnits="userSpaceOnUse" maskUnits="objectBoundingBox" x="0" y="0" width="5" height="12" fill="white">
            <use xlink:href="#path-9"/>
        </mask>
        <rect id="path-11" x="16" y="21" width="2" height="12"/>
        <mask id="mask-12" maskContentUnits="userSpaceOnUse" maskUnits="objectBoundingBox" x="0" y="0" width="2" height="12" fill="white">
            <use xlink:href="#path-11"/>
        </mask>
        <rect id="path-13" x="9.5" y="-9.5" width="5" height="24" rx="1"/>
        <mask id="mask-14" maskContentUnits="userSpaceOnUse" maskUnits="objectBoundingBox" x="0" y="0" width="5" height="24" fill="white">
            <use xlink:href="#path-13"/>
        </mask>

        <path d="M23.4701134,10.5832618 C20.7300567,10.5832618 18.501126,8.35137866 18.501126,5.60931313 C18.501126,2.8659293 20.7300567,0.635364449 23.4701134,0.635364449 C26.2114875,0.635364449 28.4404182,2.8659293 28.4404182,5.60931313 C28.4404182,8.35137866 26.2114875,10.5832618 23.4701134,10.5832618 L23.4701134,10.5832618 Z M21.7984154,34.6303856 C20.8104142,34.6303856 19.9778585,33.8578613 19.9014531,32.8730907 L19.2414682,24.2751333 C19.2348816,24.1696692 19.1558415,24.0892529 19.0583587,24.0866163 L18.512982,24.0642051 C17.5539622,24.0246561 16.7648785,23.274543 16.6792518,22.3161384 L15.9428615,14.1294908 C15.9402269,12.6160815 17.1231936,11.4322475 18.5762141,11.4322475 L28.3640128,11.4322475 C29.8170332,11.4322475 31,12.6160815 31,14.0701673 L30.2649271,22.331958 C30.1806177,23.2798162 29.4007554,24.0233378 28.4509569,24.0628868 L27.9095322,24.085298 C27.8133668,24.0892529 27.7330093,24.1670326 27.7264227,24.2619503 L27.0717072,32.8704541 C26.9979364,33.856543 26.1640634,34.6303856 25.1747449,34.6303856 L21.7984154,34.6303856 Z" id="path-1"/>
        <mask id="mask-2" maskContentUnits="userSpaceOnUse" maskUnits="objectBoundingBox" x="0" y="0" width="15.0571429" height="33.9950211" fill="white">
            <use xlink:href="#path-1"/>
        </mask>
        <path d="M7.52725629,10.834261 C4.7871996,10.834261 2.55826886,8.60237785 2.55826886,5.86031232 C2.55826886,3.11692848 4.7871996,0.886363636 7.52725629,0.886363636 C10.2686303,0.886363636 12.4975611,3.11692848 12.4975611,5.86031232 C12.4975611,8.60237785 10.2686303,10.834261 7.52725629,10.834261 L7.52725629,10.834261 Z M5.85555824,34.8813847 C4.86755703,34.8813847 4.03500134,34.1088605 3.95859591,33.1240899 L3.2986111,24.5261325 C3.29202443,24.4206684 3.21298433,24.340252 3.11550155,24.3376154 L2.57012488,24.3152043 C1.61110503,24.2756553 0.8220214,23.5255422 0.736394629,22.5671376 L4.3923732e-06,14.38049 C-0.00263027752,12.8670807 1.18033651,11.6832467 2.63335696,11.6832467 L12.4211556,11.6832467 C13.8741761,11.6832467 15.0571429,12.8670807 15.0571429,14.3211664 L14.32207,22.5829572 C14.2377605,23.5308154 13.4578982,24.274337 12.5080997,24.313886 L11.9666751,24.3362971 C11.8705096,24.340252 11.7901522,24.4180318 11.7835655,24.5129494 L11.12885,33.1214533 C11.0550793,34.1075422 10.2212063,34.8813847 9.23188771,34.8813847 L5.85555824,34.8813847 Z" id="path-3"/>
        <mask id="mask-4" maskContentUnits="userSpaceOnUse" maskUnits="objectBoundingBox" x="0" y="0" width="15.0571429" height="33.9950211" fill="white">
            <use xlink:href="#path-3"/>
        </mask>
        <path d="M15.4985255,12.0394834 C12.4265014,12.0394834 9.92752796,9.53719986 9.92752796,6.46292353 C9.92752796,3.38716919 12.4265014,0.886363636 15.4985255,0.886363636 C18.5720266,0.886363636 21.071,3.38716919 21.071,6.46292353 C21.071,9.53719986 18.5720266,12.0394834 15.4985255,12.0394834 L15.4985255,12.0394834 Z M13.6242954,39 C12.5165944,39 11.5831717,38.1338818 11.4975095,37.0298027 L10.7575652,27.3901728 C10.7501806,27.2719314 10.6615645,27.1817724 10.5522713,27.1788163 L9.94082037,27.15369 C8.86561193,27.1093495 7.98092807,26.2683576 7.88492731,25.1938389 L7.05932083,16.0153504 C7.05636696,14.3185864 8.3826543,12.9913267 10.0117132,12.9913267 L20.9853378,12.9913267 C22.6143968,12.9913267 23.9406841,14.3185864 23.9406841,15.9488396 L23.1165545,25.2115751 C23.0220307,26.2742696 22.1476854,27.1078715 21.0828155,27.152212 L20.4757954,27.1773383 C20.3679791,27.1817724 20.2778861,27.2689754 20.2705014,27.3753926 L19.5364649,37.0268467 C19.4537566,38.1324037 18.5188569,39 17.409679,39 L13.6242954,39 Z" id="path-5"/>
        <mask id="mask-6" maskContentUnits="userSpaceOnUse" maskUnits="objectBoundingBox" x="0" y="0" width="16.8813682" height="38.1136364" fill="white">
            <use xlink:href="#path-5"/>
        </mask>
    </defs>
    <symbol id="AEPO Logo - Footer" viewBox="0 0 28 26">
    <!-- Generator: Sketch 3.7.2 (28276) - http://www.bohemiancoding.com/sketch -->
    <title>AEPO Logo - Footer</title>
    <desc>Created with Sketch.</desc>

    <g id="WEB" stroke="none" stroke-width="1" fill="none" fill-rule="evenodd">
        <g id="HOME" transform="translate(-587.000000, -3599.000000)" fill="#313F48">
            <g id="FOOTER" transform="translate(370.000000, 3599.000000)">
                <g id="AEPO-Logo---Footer" transform="translate(216.000000, 0.000000)">
                    <polygon id="Rectangle-121" transform="translate(11.604088, 14.863943) rotate(-330.000000) translate(-11.604088, -14.863943) " points="7.01498654 0.783815945 15.5101772 5.83766373 16.1931901 23.9440695 7.48870709 28.9440695"/>
                    <polygon id="Rectangle-121-Copy" transform="translate(20.041266, 19.236538) scale(-1, 1) rotate(-330.000000) translate(-20.041266, -19.236538) " points="15.3917468 10.1008031 24.6058485 18.0600951 24.6907848 23.2072092 15.7446324 28.3722726"/>
                </g>
            </g>
        </g>
    </g>
</symbol><symbol id="camera_icn" viewBox="0 0 51 28">
    <!-- Generator: Sketch 3.7.2 (28276) - http://www.bohemiancoding.com/sketch -->
    <title>camera_icn</title>
    <desc>Created with Sketch.</desc>

    <g id="WEB" stroke="none" stroke-width="1" fill="none" fill-rule="evenodd">
        <g id="ELEMENTS" transform="translate(-521.000000, -3178.000000)">
            <g id="camera_icn" transform="translate(521.000000, 3178.000000)">
                <use id="Rectangle-111" stroke="#54636D" mask="url(#mask-2)" stroke-width="4" fill="#FFFFFF" xlink:href="#path-1"/>
                <use id="Triangle-1" stroke="#54636D" mask="url(#mask-4)" stroke-width="4" fill="#FFFFFF" xlink:href="#path-3"/>
                <use id="Rectangle-112-Copy-7" stroke-opacity="0.502122962" stroke="#47B7E9" mask="url(#mask-6)" stroke-width="4" transform="translate(37.000000, 16.000000) rotate(-90.000000) translate(-37.000000, -16.000000) " xlink:href="#path-5"/>
                <use id="Rectangle-112" stroke="#54636D" mask="url(#mask-8)" stroke-width="4" xlink:href="#path-7"/>
                <use id="Rectangle-112-Copy-6" stroke-opacity="0.502122962" stroke="#47B7E9" mask="url(#mask-10)" stroke-width="4" transform="translate(12.000000, 12.500000) rotate(-90.000000) translate(-12.000000, -12.500000) " xlink:href="#path-9"/>
                <use id="Rectangle-112-Copy-2" stroke="#54636D" mask="url(#mask-12)" stroke-width="4" fill="#FFFFFF" transform="translate(17.000000, 27.000000) rotate(-90.000000) translate(-17.000000, -27.000000) " xlink:href="#path-11"/>
                <use id="Rectangle-112-Copy-3" stroke="#54636D" mask="url(#mask-14)" stroke-width="4" fill="#FFFFFF" transform="translate(12.000000, 2.500000) rotate(-90.000000) translate(-12.000000, -2.500000) " xlink:href="#path-13"/>
                <ellipse id="Oval-109" stroke-opacity="0.502122962" stroke="#47B7E9" stroke-width="2" cx="24.5" cy="19.5" rx="1.5" ry="1.5"/>
            </g>
        </g>
    </g>
</symbol><symbol id="contractor_icn" viewBox="0 0 31 39">
    <!-- Generator: Sketch 3.7.2 (28276) - http://www.bohemiancoding.com/sketch -->
    <title>contractor_icn</title>
    <desc>Created with Sketch.</desc>

    <g id="WEB" stroke="none" stroke-width="1" fill="none" fill-rule="evenodd" stroke-linecap="square">
        <g id="ELEMENTS" transform="translate(-425.000000, -3173.000000)" stroke-width="4">
            <g id="contractor_icn" transform="translate(425.000000, 3173.000000)">
                <use id="user" stroke-opacity="0.497763813" stroke="#47B7E9" mask="url(#mask-2)" xlink:href="#path-1"/>
                <use id="user-copy" stroke-opacity="0.497763813" stroke="#47B7E9" mask="url(#mask-4)" xlink:href="#path-3"/>
                <use id="user-copy-2" stroke="#54636D" mask="url(#mask-6)" fill="#FFFFFF" xlink:href="#path-5"/>
            </g>
        </g>
    </g>
</symbol><symbol id="fleet_icn" viewBox="0 0 42 42">
    <!-- Generator: Sketch 3.7.2 (28276) - http://www.bohemiancoding.com/sketch -->
    <title>fleet_icn</title>
    <desc>Created with Sketch.</desc>

    <g id="WEB" stroke="none" stroke-width="1" fill="none" fill-rule="evenodd">
        <g id="ELEMENTS" transform="translate(-636.000000, -3172.000000)">
            <g id="fleet_icn" transform="translate(637.000000, 3172.000000)">
                <path d="M34.7875931,10.6556433 C35.579064,9.90029756 37.5922246,7.97416593 39.0750011,6.49138941 C41.8205187,3.74587187 41.0536786,1.52581222 40.2638496,0.732699202 C39.2523432,-0.278807262 36.9698854,-0.543178269 34.5051594,1.92318976 C33.0207409,3.40596628 31.0962513,5.41748482 30.3409055,6.20895579 C30.0781766,6.47168474 29.5297299,6.7787492 28.8482767,6.7787492 L25.1733555,6.78367537 C19.5394615,6.79188565 9.45723801,6.80666415 9.26675952,6.80830621 C8.41453248,6.82472677 8.1008998,7.21225197 7.53274844,7.78040333 C6.61648122,8.70159671 6.87428401,10.412619 8.36691286,10.8937414 C11.7380537,11.9774983 20.8514642,14.9134944 21.6429352,15.1614448 L21.6347249,15.1696551 L21.6429352,15.1614448 C20.7644353,16.0695018 17.7446944,19.1828398 17.6133299,19.3125622 C17.4836075,19.4422847 17.4836075,19.4422847 17.2914869,19.4439267 L11.629678,19.4948305 C11.1961753,19.5046828 10.7249052,19.7132239 10.394852,20.0416351 L9.43260717,21.0022378 C8.72652311,21.7066798 9.01716702,23.0203246 10.073009,23.2649909 L13.9728919,24.1648376 C13.4359396,24.7001478 13.0106471,25.5901421 13.0106471,26.3110047 C13.0106471,27.3356476 13.6641853,27.9859018 14.6888283,27.9859018 C15.4080488,27.9859018 16.296401,27.5589672 16.8317113,27.023657 C17.0304,27.8775261 17.6396028,30.517952 17.7315579,30.9218978 C17.9811504,32.0056547 19.3112158,32.2470369 19.994311,31.5639417 L20.9549138,30.6033389 C21.2833249,30.2749278 21.491866,29.8020156 21.5017184,29.3652288 C21.5050025,29.2043073 21.5378436,25.3372655 21.5526221,23.7034199 C21.5542642,23.5145834 21.5559062,23.5112993 21.6872707,23.3815769 C21.8153511,23.2534965 24.9385415,20.302722 25.8465984,19.4242221 C26.1388844,20.3142164 29.8039533,31.7002323 30.1044495,32.631278 C30.3753887,33.4703686 31.0634102,33.9892583 31.9008587,33.9892583 C32.4016858,33.9892583 32.8828082,33.7987798 33.2161455,33.4638004 C33.7810128,32.8989332 34.1734641,32.5770902 34.1882426,31.7248632 C34.1898847,31.5409529 34.2046632,21.4636555 34.2128735,15.8297616 L34.2177996,12.1466301 C34.2194417,11.4651769 34.5248641,10.9167302 34.7875931,10.6556433 L34.7875931,10.6556433 Z M9.29303242,8.45036215 C9.51799408,8.44707804 19.5608083,8.4339416 25.1749975,8.42573132 L28.1914543,8.42080515 L22.78088,13.9906589 C22.606822,13.8379477 22.3966389,13.6934468 22.0862903,13.5916393 C21.3670698,13.3551833 12.245449,10.4175452 8.87102404,9.33050414 C8.61978948,9.24840135 8.59187453,9.04971258 8.693682,8.94133688 L9.29303242,8.45036215 L9.29303242,8.45036215 Z M32.5461867,31.7018744 L32.055212,32.3028668 C32.0289391,32.3274977 31.7891989,32.5081238 31.6676868,32.1271669 C31.3671905,31.1961211 27.6988375,19.8002529 27.4065516,18.9102585 C27.3145964,18.631109 27.1684535,18.4094315 27.0026058,18.218953 L32.5757437,12.8050945 L32.5708175,15.8281195 C32.5626072,21.4439509 32.5478287,31.4785548 32.5461867,31.7018744 L32.5461867,31.7018744 Z M24.6823808,18.1844698 L37.9140676,5.33045585 C37.9107835,5.33373997 24.6774546,18.189396 24.6741705,18.1926801 C24.4869761,18.3782324 21.519781,21.2567565 20.5246951,22.2222854 C20.0879082,22.6590723 19.9154923,23.0695863 19.9105662,23.6886413 L19.8990718,25.0991674 C19.8842933,26.7264448 19.8629465,29.1763923 19.7939802,29.4424054 L19.2110503,30.0253352 C18.9614578,28.9465045 18.4458523,26.7100243 18.3768859,26.4144542 C18.1026626,25.2535207 16.5624141,24.9579506 15.562402,25.9563206 C15.2947469,26.2256178 14.9318525,26.3438458 14.6674815,26.4275907 C14.6149357,26.2978682 14.68226,25.792115 15.0402282,25.4341468 C15.5837488,24.8889842 15.8070684,24.205889 15.6362945,23.6032544 C15.4967198,23.1106377 15.1026264,22.7411751 14.5820946,22.6196629 L10.9761398,21.7871406 L11.657593,21.1368864 L17.3062654,21.0859827 C17.9269626,21.0810565 18.3374766,20.9086406 18.7742635,20.4751379 C19.7365082,19.480052 22.6183164,16.5095727 22.8038688,16.3223784 C22.8055108,16.3207363 22.8071529,16.3158101 22.810437,16.3141681 L35.666093,3.08412332 C36.5035415,2.24667479 38.3147292,1.09559357 39.101274,1.89363276 C39.5364189,2.32877758 39.5971749,3.64734851 37.9140676,5.33045585 L24.6823808,18.1844698 Z" id="plane" fill="#54636D"/>
                <path d="M29.5,35.5 L24.9723074,40.0276928" id="Line" stroke-opacity="0.497763813" stroke="#47B7E9" stroke-width="2" stroke-linecap="square"/>
                <path d="M5.5,11.5 L0.972307444,16.0276928" id="Line-Copy-2" stroke-opacity="0.497763813" stroke="#47B7E9" stroke-width="2" stroke-linecap="square"/>
                <path d="M27.5,29.5 L22.9723074,34.0276928" id="Line-Copy" stroke-opacity="0.497763813" stroke="#47B7E9" stroke-width="2" stroke-linecap="square"/>
                <path d="M12.5,13.5 L7.97230744,18.0276928" id="Line-Copy-3" stroke-opacity="0.497763813" stroke="#47B7E9" stroke-width="2" stroke-linecap="square"/>
            </g>
        </g>
    </g>
</symbol><symbol id="helmet_icn" viewBox="0 0 33 31">
    <!-- Generator: Sketch 3.7.2 (28276) - http://www.bohemiancoding.com/sketch -->
    <title>helmet_icn</title>
    <desc>Created with Sketch.</desc>

    <g id="WEB" stroke="none" stroke-width="1" fill="none" fill-rule="evenodd">
        <g id="ELEMENTS" transform="translate(-743.000000, -3176.000000)">
            <g id="helmet_icn" transform="translate(743.000000, 3176.000000)">
                <path d="M32.23,23.79 L17.052,19.742 C15.826,19.415 14.972,18.304 14.972,17.035 C14.975,15.379 16.316,14.038 17.972,14.035 L31.655,14.035 C32.207,14.035 32.655,13.587 32.655,13.035 C32.655,12.483 32.207,12.035 31.655,12.035 L17.972,12.035 C15.211,12.036 12.973,14.273 12.972,17.035 C12.973,19.21 14.435,21.114 16.536,21.674 L31.715,25.723 C32.248,25.865 32.796,25.548 32.939,25.014 C33.081,24.481 32.764,23.932 32.23,23.79" id="Fill-60" fill-opacity="0.495018116" fill="#47B7E9"/>
                <path d="M16.972,17.035 C16.972,17.587 17.42,18.035 17.972,18.035 C18.525,18.035 18.972,17.587 18.972,17.035 C18.972,16.483 18.525,16.035 17.972,16.035 C17.42,16.035 16.972,16.483 16.972,17.035" id="Fill-61" fill="#72C3E2"/>
                <path d="M16.986,0.035 C15.961,0.035 14.907,0.132 13.85,0.334 L14.034,1.317 L14.22,2.299 C15.155,2.12 16.074,2.035 16.973,2.035 C20.835,2.036 24.343,3.603 26.881,6.14 C29.418,8.679 31,12.173 31,16.035 L31,25.829 C31,26.686 30.642,27.424 30.092,27.966 C29.541,28.507 28.784,28.831 27.987,28.831 C27.732,28.831 27.468,28.798 27.203,28.727 L6.041,23.085 C5.141,22.845 4.394,22.214 4.049,21.384 C3.358,19.734 2.973,17.932 2.973,16.035 C2.973,14.947 3.099,13.827 3.37,12.684 C4.603,7.458 8.945,3.301 14.219,2.299 L13.843,0.334 C7.777,1.499 2.854,6.214 1.424,12.223 C1.118,13.515 0.972,14.791 0.972,16.035 C0.972,18.204 1.414,20.272 2.203,22.156 C2.805,23.59 4.053,24.625 5.524,25.017 L26.684,30.66 C27.117,30.775 27.567,30.831 27.994,30.831 C30.675,30.826 33,28.662 33,25.829 L33,16.035 C33,7.209 25.812,0.037 16.986,0.035" id="Fill-127" fill="#54636D"/>
            </g>
        </g>
    </g>
</symbol><symbol id="LOGOTYPE" viewBox="0 0 82 26">
    <!-- Generator: Sketch 3.7.2 (28276) - http://www.bohemiancoding.com/sketch -->
    <title>LOGOTYPE</title>
    <desc>Created with Sketch.</desc>

    <g id="WEB" stroke="none" stroke-width="1" fill="none" fill-rule="evenodd">
        <g id="ELEMENTS" transform="translate(-645.000000, -2602.000000)" fill="#313F48">
            <g id="LOGOTYPE" transform="translate(644.000000, 2602.000000)">
                <path d="M52.6964032,19.0274297 L49.2606482,9.71513452 C49.1207306,9.38866007 48.9652666,9.23319604 48.6232457,9.23319604 L47.1307911,9.23319604 C46.7887702,9.23319604 46.6177598,9.38866007 46.4933886,9.71513452 L43.0420871,19.0274297 C42.9643551,19.2139866 42.9643551,19.462729 43.306376,19.462729 L44.9387483,19.462729 C45.2807691,19.462729 45.4051404,19.3694506 45.5295116,18.9963369 L45.9648109,17.7681711 L49.7736795,17.7681711 L50.2089788,18.9963369 C50.33335,19.3694506 50.4577212,19.462729 50.7997421,19.462729 L52.4321144,19.462729 C52.7741352,19.462729 52.7741352,19.2139866 52.6964032,19.0274297 L52.6964032,19.0274297 Z M46.7110382,15.5916747 L47.8770184,12.1559197 L49.0429986,15.5916747 L46.7110382,15.5916747 Z M61.9529143,17.2862326 L56.9936118,17.2862326 L56.9936118,15.2341075 L61.1600477,15.2341075 C61.517615,15.2341075 61.6108934,15.0630971 61.6108934,14.7832618 L61.6108934,13.5706424 C61.6108934,13.2908071 61.517615,13.1197967 61.1600477,13.1197967 L56.9936118,13.1197967 L56.9936118,11.4252388 L61.6886254,11.4252388 C62.0461927,11.4252388 62.1394711,11.2542284 62.1394711,10.9743931 L62.1394711,9.68404172 C62.1394711,9.40420647 62.0461927,9.23319604 61.6886254,9.23319604 L54.9881259,9.23319604 C54.6305586,9.23319604 54.5372802,9.40420647 54.5372802,9.68404172 L54.5372802,19.0118833 C54.5372802,19.2917186 54.6305586,19.462729 54.9881259,19.462729 L61.9529143,19.462729 C62.3104815,19.462729 62.40376,19.2917186 62.40376,19.0118833 L62.40376,17.7370783 C62.40376,17.4572431 62.3104815,17.2862326 61.9529143,17.2862326 L61.9529143,17.2862326 Z M68.6909081,9.23319604 L65.1929675,9.23319604 C64.8354002,9.23319604 64.7421218,9.40420647 64.7421218,9.68404172 L64.7421218,19.0118833 C64.7421218,19.3694506 64.9131322,19.462729 65.1929675,19.462729 L66.7320613,19.462729 C67.0118966,19.462729 67.182907,19.3694506 67.182907,19.0118833 L67.182907,16.4311805 L68.6753617,16.4311805 C71.3337965,16.4311805 72.7640656,15.0009114 72.7640656,12.8399615 C72.7640656,10.6945579 71.3648893,9.23319604 68.6909081,9.23319604 L68.6909081,9.23319604 Z M68.6753617,14.3324161 L67.182907,14.3324161 L67.182907,11.4252388 L68.6753617,11.4252388 C69.8879811,11.4252388 70.4165588,12.0781877 70.4165588,12.8866007 C70.4165588,13.6639208 69.8879811,14.3324161 68.6753617,14.3324161 L68.6753617,14.3324161 Z M83,12.513487 C83,10.0571554 80.6680396,9 78.8180177,9 C76.9679957,9 74.6671281,10.0571554 74.6671281,12.513487 L74.6671281,16.1824381 C74.6671281,18.6387697 76.9679957,19.6959251 78.8180177,19.6959251 C80.6680396,19.6959251 83,18.6387697 83,16.1824381 L83,12.513487 Z M80.5592148,15.9647884 C80.5592148,16.9597582 79.8440803,17.5349751 78.8180177,17.5349751 C77.8075015,17.5349751 77.092367,16.9597582 77.092367,15.9647884 L77.092367,12.7311366 C77.092367,11.7361669 77.8075015,11.16095 78.8180177,11.16095 C79.8440803,11.16095 80.5592148,11.7361669 80.5592148,12.7311366 L80.5592148,15.9647884 Z" id="TYPE"/>
                <g id="SIGN">
                    <polygon id="Rectangle-121" transform="translate(11.604088, 14.863943) rotate(-330.000000) translate(-11.604088, -14.863943) " points="7.01498654 0.783815945 15.5101772 5.83766373 16.1931901 23.9440695 7.48870709 28.9440695"/>
                    <polygon id="Rectangle-121-Copy" transform="translate(20.041266, 19.236538) scale(-1, 1) rotate(-330.000000) translate(-20.041266, -19.236538) " points="15.3917468 10.1008031 24.6058485 18.0600951 24.6907848 23.2072092 15.7446324 28.3722726"/>
                </g>
            </g>
        </g>
    </g>
</symbol><symbol id="nav_btn" viewBox="0 0 50 50">
    <!-- Generator: Sketch 3.7.2 (28276) - http://www.bohemiancoding.com/sketch -->
    <title>nav_btn</title>
    <desc>Created with Sketch.</desc>

    <g id="WEB" stroke="none" stroke-width="1" fill="none" fill-rule="evenodd" stroke-linecap="round" stroke-linejoin="round">
        <g id="HOME" transform="translate(-49.000000, -371.000000)" stroke="#FFFFFF">
            <g id="1.-MAIN-IMAGE" transform="translate(0.000000, 72.000000)">
                <g id="nav_btn" transform="translate(50.000000, 300.000000)">
                    <circle id="Oval-110-Copy-2" cx="24" cy="24" r="24"/>
                    <polyline id="Triangle-1" points="27 35 18 24 27 13 27 13"/>
                </g>
            </g>
        </g>
    </g>
</symbol><symbol id="nav_btn_hover" viewBox="0 0 48 48">
    <!-- Generator: Sketch 3.7.2 (28276) - http://www.bohemiancoding.com/sketch -->
    <title>nav_btn_hover</title>
    <desc>Created with Sketch.</desc>

    <g id="WEB" stroke="none" stroke-width="1" fill="none" fill-rule="evenodd">
        <g id="HOME" transform="translate(-1102.000000, -372.000000)" fill="#FFFFFF">
            <g id="1.-MAIN-IMAGE" transform="translate(0.000000, 72.000000)">
                <g id="nav_btn_hover" transform="translate(1126.000000, 324.000000) rotate(-180.000000) translate(-1126.000000, -324.000000) translate(1102.000000, 300.000000)">
                    <path d="M24,48 C37.254834,48 48,37.254834 48,24 C48,10.745166 37.254834,0 24,0 C10.745166,0 0,10.745166 0,24 C0,37.254834 10.745166,48 24,48 Z M27.3869786,34.6833811 L18.3869786,23.6833811 L18.3869786,24.3166189 L27.3869786,13.3166189 C27.5618424,13.1028965 27.5303413,12.7878851 27.3166189,12.6130214 C27.1028965,12.4381576 26.7878851,12.4696587 26.6130214,12.6833811 L17.6130214,23.6833811 C17.4623262,23.867564 17.4623262,24.132436 17.6130214,24.3166189 L26.6130214,35.3166189 C26.7878851,35.5303413 27.1028965,35.5618424 27.3166189,35.3869786 C27.5303413,35.2121149 27.5618424,34.8971035 27.3869786,34.6833811 Z" id="Combined-Shape"/>
                </g>
            </g>
        </g>
    </g>
</symbol><symbol id="sprite"><symbol id="AEPO Logo - Footer" viewBox="0 0 28 26">
    <!-- Generator: Sketch 3.7.2 (28276) - http://www.bohemiancoding.com/sketch -->
    <title>AEPO Logo - Footer</title>
    <desc>Created with Sketch.</desc>

    <g id="WEB" stroke="none" stroke-width="1" fill="none" fill-rule="evenodd">
        <g id="HOME" transform="translate(-587.000000, -3599.000000)" fill="#313F48">
            <g id="FOOTER" transform="translate(370.000000, 3599.000000)">
                <g id="AEPO-Logo---Footer" transform="translate(216.000000, 0.000000)">
                    <polygon id="Rectangle-121" transform="translate(11.604088, 14.863943) rotate(-330.000000) translate(-11.604088, -14.863943) " points="7.01498654 0.783815945 15.5101772 5.83766373 16.1931901 23.9440695 7.48870709 28.9440695"/>
                    <polygon id="Rectangle-121-Copy" transform="translate(20.041266, 19.236538) scale(-1, 1) rotate(-330.000000) translate(-20.041266, -19.236538) " points="15.3917468 10.1008031 24.6058485 18.0600951 24.6907848 23.2072092 15.7446324 28.3722726"/>
                </g>
            </g>
        </g>
    </g>
</symbol><symbol id="camera_icn" viewBox="0 0 51 28">
    <!-- Generator: Sketch 3.7.2 (28276) - http://www.bohemiancoding.com/sketch -->
    <title>camera_icn</title>
    <desc>Created with Sketch.</desc>

    <g id="WEB" stroke="none" stroke-width="1" fill="none" fill-rule="evenodd">
        <g id="ELEMENTS" transform="translate(-521.000000, -3178.000000)">
            <g id="camera_icn" transform="translate(521.000000, 3178.000000)">
                <use id="Rectangle-111" stroke="#54636D" mask="url(#mask-2)" stroke-width="4" fill="#FFFFFF" xlink:href="#path-1"/>
                <use id="Triangle-1" stroke="#54636D" mask="url(#mask-4)" stroke-width="4" fill="#FFFFFF" xlink:href="#path-3"/>
                <use id="Rectangle-112-Copy-7" stroke-opacity="0.502122962" stroke="#47B7E9" mask="url(#mask-6)" stroke-width="4" transform="translate(37.000000, 16.000000) rotate(-90.000000) translate(-37.000000, -16.000000) " xlink:href="#path-5"/>
                <use id="Rectangle-112" stroke="#54636D" mask="url(#mask-8)" stroke-width="4" xlink:href="#path-7"/>
                <use id="Rectangle-112-Copy-6" stroke-opacity="0.502122962" stroke="#47B7E9" mask="url(#mask-10)" stroke-width="4" transform="translate(12.000000, 12.500000) rotate(-90.000000) translate(-12.000000, -12.500000) " xlink:href="#path-9"/>
                <use id="Rectangle-112-Copy-2" stroke="#54636D" mask="url(#mask-12)" stroke-width="4" fill="#FFFFFF" transform="translate(17.000000, 27.000000) rotate(-90.000000) translate(-17.000000, -27.000000) " xlink:href="#path-11"/>
                <use id="Rectangle-112-Copy-3" stroke="#54636D" mask="url(#mask-14)" stroke-width="4" fill="#FFFFFF" transform="translate(12.000000, 2.500000) rotate(-90.000000) translate(-12.000000, -2.500000) " xlink:href="#path-13"/>
                <ellipse id="Oval-109" stroke-opacity="0.502122962" stroke="#47B7E9" stroke-width="2" cx="24.5" cy="19.5" rx="1.5" ry="1.5"/>
            </g>
        </g>
    </g>
</symbol><symbol id="contractor_icn" viewBox="0 0 31 39">
    <!-- Generator: Sketch 3.7.2 (28276) - http://www.bohemiancoding.com/sketch -->
    <title>contractor_icn</title>
    <desc>Created with Sketch.</desc>

    <g id="WEB" stroke="none" stroke-width="1" fill="none" fill-rule="evenodd" stroke-linecap="square">
        <g id="ELEMENTS" transform="translate(-425.000000, -3173.000000)" stroke-width="4">
            <g id="contractor_icn" transform="translate(425.000000, 3173.000000)">
                <use id="user" stroke-opacity="0.497763813" stroke="#47B7E9" mask="url(#mask-2)" xlink:href="#path-1"/>
                <use id="user-copy" stroke-opacity="0.497763813" stroke="#47B7E9" mask="url(#mask-4)" xlink:href="#path-3"/>
                <use id="user-copy-2" stroke="#54636D" mask="url(#mask-6)" fill="#FFFFFF" xlink:href="#path-5"/>
            </g>
        </g>
    </g>
</symbol><symbol id="fleet_icn" viewBox="0 0 42 42">
    <!-- Generator: Sketch 3.7.2 (28276) - http://www.bohemiancoding.com/sketch -->
    <title>fleet_icn</title>
    <desc>Created with Sketch.</desc>

    <g id="WEB" stroke="none" stroke-width="1" fill="none" fill-rule="evenodd">
        <g id="ELEMENTS" transform="translate(-636.000000, -3172.000000)">
            <g id="fleet_icn" transform="translate(637.000000, 3172.000000)">
                <path d="M34.7875931,10.6556433 C35.579064,9.90029756 37.5922246,7.97416593 39.0750011,6.49138941 C41.8205187,3.74587187 41.0536786,1.52581222 40.2638496,0.732699202 C39.2523432,-0.278807262 36.9698854,-0.543178269 34.5051594,1.92318976 C33.0207409,3.40596628 31.0962513,5.41748482 30.3409055,6.20895579 C30.0781766,6.47168474 29.5297299,6.7787492 28.8482767,6.7787492 L25.1733555,6.78367537 C19.5394615,6.79188565 9.45723801,6.80666415 9.26675952,6.80830621 C8.41453248,6.82472677 8.1008998,7.21225197 7.53274844,7.78040333 C6.61648122,8.70159671 6.87428401,10.412619 8.36691286,10.8937414 C11.7380537,11.9774983 20.8514642,14.9134944 21.6429352,15.1614448 L21.6347249,15.1696551 L21.6429352,15.1614448 C20.7644353,16.0695018 17.7446944,19.1828398 17.6133299,19.3125622 C17.4836075,19.4422847 17.4836075,19.4422847 17.2914869,19.4439267 L11.629678,19.4948305 C11.1961753,19.5046828 10.7249052,19.7132239 10.394852,20.0416351 L9.43260717,21.0022378 C8.72652311,21.7066798 9.01716702,23.0203246 10.073009,23.2649909 L13.9728919,24.1648376 C13.4359396,24.7001478 13.0106471,25.5901421 13.0106471,26.3110047 C13.0106471,27.3356476 13.6641853,27.9859018 14.6888283,27.9859018 C15.4080488,27.9859018 16.296401,27.5589672 16.8317113,27.023657 C17.0304,27.8775261 17.6396028,30.517952 17.7315579,30.9218978 C17.9811504,32.0056547 19.3112158,32.2470369 19.994311,31.5639417 L20.9549138,30.6033389 C21.2833249,30.2749278 21.491866,29.8020156 21.5017184,29.3652288 C21.5050025,29.2043073 21.5378436,25.3372655 21.5526221,23.7034199 C21.5542642,23.5145834 21.5559062,23.5112993 21.6872707,23.3815769 C21.8153511,23.2534965 24.9385415,20.302722 25.8465984,19.4242221 C26.1388844,20.3142164 29.8039533,31.7002323 30.1044495,32.631278 C30.3753887,33.4703686 31.0634102,33.9892583 31.9008587,33.9892583 C32.4016858,33.9892583 32.8828082,33.7987798 33.2161455,33.4638004 C33.7810128,32.8989332 34.1734641,32.5770902 34.1882426,31.7248632 C34.1898847,31.5409529 34.2046632,21.4636555 34.2128735,15.8297616 L34.2177996,12.1466301 C34.2194417,11.4651769 34.5248641,10.9167302 34.7875931,10.6556433 L34.7875931,10.6556433 Z M9.29303242,8.45036215 C9.51799408,8.44707804 19.5608083,8.4339416 25.1749975,8.42573132 L28.1914543,8.42080515 L22.78088,13.9906589 C22.606822,13.8379477 22.3966389,13.6934468 22.0862903,13.5916393 C21.3670698,13.3551833 12.245449,10.4175452 8.87102404,9.33050414 C8.61978948,9.24840135 8.59187453,9.04971258 8.693682,8.94133688 L9.29303242,8.45036215 L9.29303242,8.45036215 Z M32.5461867,31.7018744 L32.055212,32.3028668 C32.0289391,32.3274977 31.7891989,32.5081238 31.6676868,32.1271669 C31.3671905,31.1961211 27.6988375,19.8002529 27.4065516,18.9102585 C27.3145964,18.631109 27.1684535,18.4094315 27.0026058,18.218953 L32.5757437,12.8050945 L32.5708175,15.8281195 C32.5626072,21.4439509 32.5478287,31.4785548 32.5461867,31.7018744 L32.5461867,31.7018744 Z M24.6823808,18.1844698 L37.9140676,5.33045585 C37.9107835,5.33373997 24.6774546,18.189396 24.6741705,18.1926801 C24.4869761,18.3782324 21.519781,21.2567565 20.5246951,22.2222854 C20.0879082,22.6590723 19.9154923,23.0695863 19.9105662,23.6886413 L19.8990718,25.0991674 C19.8842933,26.7264448 19.8629465,29.1763923 19.7939802,29.4424054 L19.2110503,30.0253352 C18.9614578,28.9465045 18.4458523,26.7100243 18.3768859,26.4144542 C18.1026626,25.2535207 16.5624141,24.9579506 15.562402,25.9563206 C15.2947469,26.2256178 14.9318525,26.3438458 14.6674815,26.4275907 C14.6149357,26.2978682 14.68226,25.792115 15.0402282,25.4341468 C15.5837488,24.8889842 15.8070684,24.205889 15.6362945,23.6032544 C15.4967198,23.1106377 15.1026264,22.7411751 14.5820946,22.6196629 L10.9761398,21.7871406 L11.657593,21.1368864 L17.3062654,21.0859827 C17.9269626,21.0810565 18.3374766,20.9086406 18.7742635,20.4751379 C19.7365082,19.480052 22.6183164,16.5095727 22.8038688,16.3223784 C22.8055108,16.3207363 22.8071529,16.3158101 22.810437,16.3141681 L35.666093,3.08412332 C36.5035415,2.24667479 38.3147292,1.09559357 39.101274,1.89363276 C39.5364189,2.32877758 39.5971749,3.64734851 37.9140676,5.33045585 L24.6823808,18.1844698 Z" id="plane" fill="#54636D"/>
                <path d="M29.5,35.5 L24.9723074,40.0276928" id="Line" stroke-opacity="0.497763813" stroke="#47B7E9" stroke-width="2" stroke-linecap="square"/>
                <path d="M5.5,11.5 L0.972307444,16.0276928" id="Line-Copy-2" stroke-opacity="0.497763813" stroke="#47B7E9" stroke-width="2" stroke-linecap="square"/>
                <path d="M27.5,29.5 L22.9723074,34.0276928" id="Line-Copy" stroke-opacity="0.497763813" stroke="#47B7E9" stroke-width="2" stroke-linecap="square"/>
                <path d="M12.5,13.5 L7.97230744,18.0276928" id="Line-Copy-3" stroke-opacity="0.497763813" stroke="#47B7E9" stroke-width="2" stroke-linecap="square"/>
            </g>
        </g>
    </g>
</symbol><symbol id="helmet_icn" viewBox="0 0 33 31">
    <!-- Generator: Sketch 3.7.2 (28276) - http://www.bohemiancoding.com/sketch -->
    <title>helmet_icn</title>
    <desc>Created with Sketch.</desc>

    <g id="WEB" stroke="none" stroke-width="1" fill="none" fill-rule="evenodd">
        <g id="ELEMENTS" transform="translate(-743.000000, -3176.000000)">
            <g id="helmet_icn" transform="translate(743.000000, 3176.000000)">
                <path d="M32.23,23.79 L17.052,19.742 C15.826,19.415 14.972,18.304 14.972,17.035 C14.975,15.379 16.316,14.038 17.972,14.035 L31.655,14.035 C32.207,14.035 32.655,13.587 32.655,13.035 C32.655,12.483 32.207,12.035 31.655,12.035 L17.972,12.035 C15.211,12.036 12.973,14.273 12.972,17.035 C12.973,19.21 14.435,21.114 16.536,21.674 L31.715,25.723 C32.248,25.865 32.796,25.548 32.939,25.014 C33.081,24.481 32.764,23.932 32.23,23.79" id="Fill-60" fill-opacity="0.495018116" fill="#47B7E9"/>
                <path d="M16.972,17.035 C16.972,17.587 17.42,18.035 17.972,18.035 C18.525,18.035 18.972,17.587 18.972,17.035 C18.972,16.483 18.525,16.035 17.972,16.035 C17.42,16.035 16.972,16.483 16.972,17.035" id="Fill-61" fill="#72C3E2"/>
                <path d="M16.986,0.035 C15.961,0.035 14.907,0.132 13.85,0.334 L14.034,1.317 L14.22,2.299 C15.155,2.12 16.074,2.035 16.973,2.035 C20.835,2.036 24.343,3.603 26.881,6.14 C29.418,8.679 31,12.173 31,16.035 L31,25.829 C31,26.686 30.642,27.424 30.092,27.966 C29.541,28.507 28.784,28.831 27.987,28.831 C27.732,28.831 27.468,28.798 27.203,28.727 L6.041,23.085 C5.141,22.845 4.394,22.214 4.049,21.384 C3.358,19.734 2.973,17.932 2.973,16.035 C2.973,14.947 3.099,13.827 3.37,12.684 C4.603,7.458 8.945,3.301 14.219,2.299 L13.843,0.334 C7.777,1.499 2.854,6.214 1.424,12.223 C1.118,13.515 0.972,14.791 0.972,16.035 C0.972,18.204 1.414,20.272 2.203,22.156 C2.805,23.59 4.053,24.625 5.524,25.017 L26.684,30.66 C27.117,30.775 27.567,30.831 27.994,30.831 C30.675,30.826 33,28.662 33,25.829 L33,16.035 C33,7.209 25.812,0.037 16.986,0.035" id="Fill-127" fill="#54636D"/>
            </g>
        </g>
    </g>
</symbol><symbol id="LOGOTYPE" viewBox="0 0 82 26">
    <!-- Generator: Sketch 3.7.2 (28276) - http://www.bohemiancoding.com/sketch -->
    <title>LOGOTYPE</title>
    <desc>Created with Sketch.</desc>

    <g id="WEB" stroke="none" stroke-width="1" fill="none" fill-rule="evenodd">
        <g id="ELEMENTS" transform="translate(-645.000000, -2602.000000)" fill="#313F48">
            <g id="LOGOTYPE" transform="translate(644.000000, 2602.000000)">
                <path d="M52.6964032,19.0274297 L49.2606482,9.71513452 C49.1207306,9.38866007 48.9652666,9.23319604 48.6232457,9.23319604 L47.1307911,9.23319604 C46.7887702,9.23319604 46.6177598,9.38866007 46.4933886,9.71513452 L43.0420871,19.0274297 C42.9643551,19.2139866 42.9643551,19.462729 43.306376,19.462729 L44.9387483,19.462729 C45.2807691,19.462729 45.4051404,19.3694506 45.5295116,18.9963369 L45.9648109,17.7681711 L49.7736795,17.7681711 L50.2089788,18.9963369 C50.33335,19.3694506 50.4577212,19.462729 50.7997421,19.462729 L52.4321144,19.462729 C52.7741352,19.462729 52.7741352,19.2139866 52.6964032,19.0274297 L52.6964032,19.0274297 Z M46.7110382,15.5916747 L47.8770184,12.1559197 L49.0429986,15.5916747 L46.7110382,15.5916747 Z M61.9529143,17.2862326 L56.9936118,17.2862326 L56.9936118,15.2341075 L61.1600477,15.2341075 C61.517615,15.2341075 61.6108934,15.0630971 61.6108934,14.7832618 L61.6108934,13.5706424 C61.6108934,13.2908071 61.517615,13.1197967 61.1600477,13.1197967 L56.9936118,13.1197967 L56.9936118,11.4252388 L61.6886254,11.4252388 C62.0461927,11.4252388 62.1394711,11.2542284 62.1394711,10.9743931 L62.1394711,9.68404172 C62.1394711,9.40420647 62.0461927,9.23319604 61.6886254,9.23319604 L54.9881259,9.23319604 C54.6305586,9.23319604 54.5372802,9.40420647 54.5372802,9.68404172 L54.5372802,19.0118833 C54.5372802,19.2917186 54.6305586,19.462729 54.9881259,19.462729 L61.9529143,19.462729 C62.3104815,19.462729 62.40376,19.2917186 62.40376,19.0118833 L62.40376,17.7370783 C62.40376,17.4572431 62.3104815,17.2862326 61.9529143,17.2862326 L61.9529143,17.2862326 Z M68.6909081,9.23319604 L65.1929675,9.23319604 C64.8354002,9.23319604 64.7421218,9.40420647 64.7421218,9.68404172 L64.7421218,19.0118833 C64.7421218,19.3694506 64.9131322,19.462729 65.1929675,19.462729 L66.7320613,19.462729 C67.0118966,19.462729 67.182907,19.3694506 67.182907,19.0118833 L67.182907,16.4311805 L68.6753617,16.4311805 C71.3337965,16.4311805 72.7640656,15.0009114 72.7640656,12.8399615 C72.7640656,10.6945579 71.3648893,9.23319604 68.6909081,9.23319604 L68.6909081,9.23319604 Z M68.6753617,14.3324161 L67.182907,14.3324161 L67.182907,11.4252388 L68.6753617,11.4252388 C69.8879811,11.4252388 70.4165588,12.0781877 70.4165588,12.8866007 C70.4165588,13.6639208 69.8879811,14.3324161 68.6753617,14.3324161 L68.6753617,14.3324161 Z M83,12.513487 C83,10.0571554 80.6680396,9 78.8180177,9 C76.9679957,9 74.6671281,10.0571554 74.6671281,12.513487 L74.6671281,16.1824381 C74.6671281,18.6387697 76.9679957,19.6959251 78.8180177,19.6959251 C80.6680396,19.6959251 83,18.6387697 83,16.1824381 L83,12.513487 Z M80.5592148,15.9647884 C80.5592148,16.9597582 79.8440803,17.5349751 78.8180177,17.5349751 C77.8075015,17.5349751 77.092367,16.9597582 77.092367,15.9647884 L77.092367,12.7311366 C77.092367,11.7361669 77.8075015,11.16095 78.8180177,11.16095 C79.8440803,11.16095 80.5592148,11.7361669 80.5592148,12.7311366 L80.5592148,15.9647884 Z" id="TYPE"/>
                <g id="SIGN">
                    <polygon id="Rectangle-121" transform="translate(11.604088, 14.863943) rotate(-330.000000) translate(-11.604088, -14.863943) " points="7.01498654 0.783815945 15.5101772 5.83766373 16.1931901 23.9440695 7.48870709 28.9440695"/>
                    <polygon id="Rectangle-121-Copy" transform="translate(20.041266, 19.236538) scale(-1, 1) rotate(-330.000000) translate(-20.041266, -19.236538) " points="15.3917468 10.1008031 24.6058485 18.0600951 24.6907848 23.2072092 15.7446324 28.3722726"/>
                </g>
            </g>
        </g>
    </g>
</symbol><symbol id="nav_btn" viewBox="0 0 50 50">
    <!-- Generator: Sketch 3.7.2 (28276) - http://www.bohemiancoding.com/sketch -->
    <title>nav_btn</title>
    <desc>Created with Sketch.</desc>

    <g id="WEB" stroke="none" stroke-width="1" fill="none" fill-rule="evenodd" stroke-linecap="round" stroke-linejoin="round">
        <g id="HOME" transform="translate(-49.000000, -371.000000)" stroke="#FFFFFF">
            <g id="1.-MAIN-IMAGE" transform="translate(0.000000, 72.000000)">
                <g id="nav_btn" transform="translate(50.000000, 300.000000)">
                    <circle id="Oval-110-Copy-2" cx="24" cy="24" r="24"/>
                    <polyline id="Triangle-1" points="27 35 18 24 27 13 27 13"/>
                </g>
            </g>
        </g>
    </g>
</symbol><symbol id="nav_btn_hover" viewBox="0 0 48 48">
    <!-- Generator: Sketch 3.7.2 (28276) - http://www.bohemiancoding.com/sketch -->
    <title>nav_btn_hover</title>
    <desc>Created with Sketch.</desc>

    <g id="WEB" stroke="none" stroke-width="1" fill="none" fill-rule="evenodd">
        <g id="HOME" transform="translate(-1102.000000, -372.000000)" fill="#FFFFFF">
            <g id="1.-MAIN-IMAGE" transform="translate(0.000000, 72.000000)">
                <g id="nav_btn_hover" transform="translate(1126.000000, 324.000000) rotate(-180.000000) translate(-1126.000000, -324.000000) translate(1102.000000, 300.000000)">
                    <path d="M24,48 C37.254834,48 48,37.254834 48,24 C48,10.745166 37.254834,0 24,0 C10.745166,0 0,10.745166 0,24 C0,37.254834 10.745166,48 24,48 Z M27.3869786,34.6833811 L18.3869786,23.6833811 L18.3869786,24.3166189 L27.3869786,13.3166189 C27.5618424,13.1028965 27.5303413,12.7878851 27.3166189,12.6130214 C27.1028965,12.4381576 26.7878851,12.4696587 26.6130214,12.6833811 L17.6130214,23.6833811 C17.4623262,23.867564 17.4623262,24.132436 17.6130214,24.3166189 L26.6130214,35.3166189 C26.7878851,35.5303413 27.1028965,35.5618424 27.3166189,35.3869786 C27.5303413,35.2121149 27.5618424,34.8971035 27.3869786,34.6833811 Z" id="Combined-Shape"/>
                </g>
            </g>
        </g>
    </g>
</symbol></symbol></svg>
